<svg xmlns="http://www.w3.org/2000/svg" width="24" height="24" viewBox="0 0 24 24" fill="none"><path fill-rule="evenodd" clip-rule="evenodd" d="M16.414 16.836L13.8685 17.739C13.6953 17.8005 13.5025 17.757 13.3727 17.6273C13.243 17.4975 13.1995 17.3047 13.261 17.1315L14.164 14.586C14.1692 14.5718 14.1767 14.559 14.188 14.5485L20.9222 7.8135C21.2545 7.48125 21.7937 7.48125 22.126 7.8135L23.1865 8.874C23.5188 9.20625 23.5188 9.7455 23.1865 10.0778L16.4515 16.812C16.441 16.8233 16.4282 16.8308 16.414 16.836ZM19 16.3853V18.75C19 19.347 18.763 19.9192 18.3407 20.3407C17.9192 20.763 17.347 21 16.75 21H4.75C4.153 21 3.58075 20.763 3.15925 20.3407C2.737 19.9192 2.5 19.347 2.5 18.75V8.25H18.3647L13.1268 13.488C12.9588 13.656 12.8297 13.86 12.7502 14.085L11.8472 16.6298C11.5922 17.3483 11.7738 18.1485 12.3123 18.6877C12.8515 19.2262 13.6517 19.4078 14.3702 19.1528L16.915 18.2498C17.14 18.1703 19 16.3853 19 16.3853ZM6.25 17.25H8.62675C9.04075 17.25 9.37675 16.914 9.37675 16.5C9.37675 16.086 9.04075 15.75 8.62675 15.75H6.25C5.836 15.75 5.5 16.086 5.5 16.5C5.5 16.914 5.836 17.25 6.25 17.25ZM6.25 14.25H10.1267C10.5407 14.25 10.8767 13.914 10.8767 13.5C10.8767 13.086 10.5407 12.75 10.1267 12.75H6.25C5.836 12.75 5.5 13.086 5.5 13.5C5.5 13.914 5.836 14.25 6.25 14.25ZM6.25 11.25H13.1268C13.5408 11.25 13.8768 10.914 13.8768 10.5C13.8768 10.086 13.5408 9.75 13.1268 9.75H6.25C5.836 9.75 5.5 10.086 5.5 10.5C5.5 10.914 5.836 11.25 6.25 11.25ZM2.5 6.75V5.25C2.5 4.653 2.737 4.08075 3.15925 3.65925C3.58075 3.237 4.153 3 4.75 3H16.75C17.347 3 17.9192 3.237 18.3407 3.65925C18.763 4.08075 19 4.653 19 5.25V6.75H2.5Z" fill="white"></path></svg>