<svg xmlns="http://www.w3.org/2000/svg" width="24" height="22" viewBox="0 0 24 22" fill="none"><path d="M19.68 18.2001H4.32001C3.52608 18.2001 2.88 18.8462 2.88 19.6401C2.88 20.434 3.52608 21.0801 4.32001 21.0801H19.68C20.4739 21.0801 21.12 20.434 21.12 19.6401C21.12 18.8462 20.4739 18.2001 19.68 18.2001Z" fill="white"></path><path d="M22.08 3.80004C21.0211 3.80004 20.16 4.66118 20.16 5.72004C20.16 6.43142 20.5536 7.04675 21.1305 7.3789C20.0198 10.0093 18.287 11.6231 16.6675 11.4771C14.8665 11.3303 13.3977 9.20098 12.5875 5.63843C13.6262 5.37537 14.4 4.43937 14.4 3.32004C14.4 1.9962 13.3238 0.920044 12 0.920044C10.6761 0.920044 9.59995 1.9962 9.59995 3.32004C9.59995 4.43942 10.3737 5.37542 11.4124 5.63843C10.6022 9.20098 9.13336 11.3303 7.33242 11.4771C5.71964 11.6231 3.97913 10.0093 2.86941 7.3789C3.44634 7.04675 3.83995 6.43137 3.83995 5.72004C3.83995 4.66118 2.97881 3.80004 1.91995 3.80004C0.861141 3.80004 0 4.66118 0 5.72004C0 6.70503 0.748781 7.5095 1.70494 7.6189L3.55392 17.24H20.4461L22.295 7.6189C23.2512 7.5095 24 6.70503 24 5.72004C24 4.66118 23.1389 3.80004 22.08 3.80004Z" fill="white"></path></svg>