<svg xmlns="http://www.w3.org/2000/svg" width="24" height="24" viewBox="0 0 24 24" fill="none"><path d="M15.7161 12.1003C15.6083 12.981 15.2122 13.8206 14.5597 14.4731C13.7665 15.2667 12.6579 15.6403 11.2657 15.584C10.2893 15.5451 9.83838 15.8006 9.76432 15.847C9.46526 16.109 9.08557 16.2525 8.68478 16.2525C8.2465 16.2525 7.83447 16.0818 7.52462 15.772C6.98977 15.2371 6.90352 14.4121 7.26868 13.7835L7.53071 13.3682C7.61978 13.1512 7.74025 12.7228 7.71212 12.0304C7.65634 10.6377 8.02994 9.52961 8.82307 8.73648C9.47276 8.08726 10.3034 7.68507 11.2015 7.57772C11.3285 6.96694 11.6037 6.39553 12.0007 5.91553H2.57975C1.54474 5.91553 0.702393 6.75741 0.702393 7.79241V17.1014H20.2869V7.85804L17.907 10.7746C17.3473 11.4585 16.5701 11.924 15.7161 12.1003Z" fill="white"></path><path d="M0.702439 19.1076C0.702439 20.1421 1.54479 20.984 2.57979 20.984H7.91509V22.5937H6.73252C6.34421 22.5937 6.02939 22.9085 6.02939 23.2968C6.02939 23.6851 6.34421 23.9999 6.73252 23.9999H14.2566C14.6449 23.9999 14.9597 23.6851 14.9597 23.2968C14.9597 22.9085 14.6449 22.5937 14.2566 22.5937H13.074V20.984H18.4095C19.4445 20.984 20.2869 20.1421 20.2869 19.1076V18.5076H0.702393V19.1076H0.702439Z" fill="white"></path><path d="M8.53632 14.4298C8.53617 14.4299 8.53603 14.43 8.53594 14.4302C8.53585 14.4302 8.5358 14.4302 8.53575 14.4303L8.53557 14.4305C8.53547 14.4306 8.53542 14.4307 8.53533 14.4308C8.53528 14.4309 8.53524 14.4309 8.5351 14.431L8.53505 14.431C8.535 14.4311 8.53491 14.4312 8.53481 14.4313C8.53481 14.4313 8.53482 14.4313 8.53477 14.4313C8.53472 14.4314 8.53463 14.4315 8.53458 14.4316C8.53458 14.4316 8.53458 14.4316 8.53453 14.4316C8.53444 14.4317 8.53439 14.4317 8.5343 14.4318C8.5343 14.4318 8.5343 14.4318 8.53425 14.4319L8.53402 14.4321C8.44514 14.5239 8.44603 14.6702 8.53664 14.7609C8.58244 14.8067 8.64239 14.8295 8.70239 14.8295C8.76183 14.8295 8.82127 14.8071 8.86688 14.7621C8.88122 14.7485 9.59124 14.0921 11.3403 14.1625C12.3244 14.2021 13.0789 13.9664 13.5831 13.4622C14.6164 12.4289 14.6164 10.7477 13.5831 9.71444C13.0826 9.2139 12.4171 8.93823 11.7092 8.93823C11.0014 8.93823 10.3359 9.21386 9.83536 9.71444C9.33117 10.2186 9.09553 10.9732 9.1351 11.9572C9.20578 13.7158 8.54199 14.4239 8.53664 14.4295C8.53646 14.4296 8.53641 14.4297 8.53632 14.4298Z" fill="white"></path><path d="M15.6547 10.6547C16.1132 10.5173 16.5261 10.2455 16.8341 9.86906L17.7325 8.76806L14.5321 5.56763L13.4357 6.46313C13.0583 6.77063 12.7855 7.18313 12.6477 7.64156C13.3724 7.81172 14.0371 8.18063 14.5766 8.72016C15.1288 9.27235 15.4883 9.945 15.6547 10.6547Z" fill="white"></path><path d="M22.8754 0.422215C22.3518 -0.101378 21.524 -0.143097 20.9502 0.325653L15.6272 4.67345L18.6266 7.67284L22.9724 2.34695C23.4407 1.77362 23.399 0.945809 22.8754 0.422215Z" fill="white"></path></svg>