<svg xmlns="http://www.w3.org/2000/svg" width="22" height="22" viewBox="0 0 22 22" fill="none"><path d="M22 5.15625V1.93359C22 0.86741 21.1326 0 20.0664 0H1.93359C0.86741 0 0 0.86741 0 1.93359V5.15625H22ZM14.8672 2.57812H18.7344C19.0903 2.57812 19.3789 2.8667 19.3789 3.22266C19.3789 3.57861 19.0903 3.86719 18.7344 3.86719H14.8672C14.5112 3.86719 14.2227 3.57861 14.2227 3.22266C14.2227 2.8667 14.5112 2.57812 14.8672 2.57812ZM8.42188 2.57812C8.77783 2.57812 9.06641 2.8667 9.06641 3.22266C9.06641 3.57861 8.77783 3.86719 8.42188 3.86719C8.06592 3.86719 7.77734 3.57861 7.77734 3.22266C7.77734 2.8667 8.06592 2.57812 8.42188 2.57812ZM5.84375 2.57812C6.1997 2.57812 6.48828 2.8667 6.48828 3.22266C6.48828 3.57861 6.1997 3.86719 5.84375 3.86719C5.4878 3.86719 5.19922 3.57861 5.19922 3.22266C5.19922 2.8667 5.4878 2.57812 5.84375 2.57812ZM3.26562 2.57812C3.62158 2.57812 3.91016 2.8667 3.91016 3.22266C3.91016 3.57861 3.62158 3.86719 3.26562 3.86719C2.90967 3.86719 2.62109 3.57861 2.62109 3.22266C2.62109 2.8667 2.90967 2.57812 3.26562 2.57812Z" fill="white"></path><path d="M0 6.44531V19.9805C0 21.0467 0.86741 21.9141 1.93359 21.9141H20.0664C21.1326 21.9141 22 21.0467 22 19.9805V6.44531H0ZM7.53543 15.61C7.81344 15.8324 7.85847 16.2379 7.63611 16.5159C7.41378 16.7938 7.00812 16.8389 6.7302 16.6165L3.50754 14.0384C3.18532 13.7807 3.1851 13.2897 3.50754 13.0318L6.7302 10.4537C7.00803 10.2313 7.4137 10.2764 7.63611 10.5543C7.85847 10.8323 7.81344 11.2379 7.53543 11.4602L4.94192 13.5352L7.53543 15.61ZM13.526 9.27734L9.65882 18.3008C9.51861 18.6279 9.1398 18.7796 8.8125 18.6393C8.48534 18.4991 8.33375 18.1201 8.474 17.793L12.3412 8.76954C12.4814 8.44237 12.8603 8.29082 13.1875 8.43103C13.5147 8.57123 13.6663 8.95013 13.526 9.27734ZM18.4925 14.0384L15.2698 16.6166C14.9923 16.8386 14.5866 16.7943 14.3639 16.5159C14.1415 16.238 14.1866 15.8324 14.4646 15.61L17.0581 13.5352L14.4646 11.4603C14.1866 11.238 14.1415 10.8324 14.3639 10.5544C14.5862 10.2764 14.9918 10.2314 15.2698 10.4538L18.4925 13.0319C18.8147 13.2896 18.8149 13.7806 18.4925 14.0384Z" fill="white"></path></svg>