<svg xmlns="http://www.w3.org/2000/svg" width="24" height="24" viewBox="0 0 24 24" fill="none"><g clip-path="url(#clip0_1_68)"><path d="M10.5195 0.75415C5.13516 0.75415 0.748291 5.13516 0.748291 10.5195C0.748291 15.9039 5.13516 20.2834 10.5195 20.2834C12.9411 20.2834 15.155 19.3934 16.8635 17.9286L17.7159 18.781L17.1848 19.3121C17.044 19.453 16.9648 19.6441 16.9648 19.8432C16.9648 20.0424 17.044 20.2335 17.1848 20.3744L19.4369 22.6279C19.9296 23.1209 20.5634 23.3603 21.152 23.3336C21.7405 23.308 22.2655 23.0435 22.6528 22.6572C23.0402 22.271 23.3044 21.7478 23.3321 21.1593C23.3599 20.5707 23.1206 19.9358 22.6279 19.4427L20.3729 17.1862C20.3019 17.1152 20.2175 17.0592 20.1245 17.0214C20.0315 16.9836 19.9319 16.9648 19.8315 16.9662C19.6359 16.9689 19.449 17.0479 19.3107 17.1862L18.7781 17.7188L17.9257 16.8664C19.3924 15.1579 20.2849 12.9426 20.2849 10.5195C20.2849 5.13516 15.9039 0.75415 10.5195 0.75415ZM12.016 6.7592H15.0222C15.1213 6.75882 15.2196 6.77807 15.3112 6.81583C15.4029 6.8536 15.4862 6.90913 15.5563 6.97923C15.6264 7.04933 15.6819 7.13261 15.7197 7.22428C15.7574 7.31594 15.7767 7.41418 15.7763 7.51331V10.5195C15.7785 10.6196 15.7607 10.719 15.724 10.8121C15.6872 10.9052 15.6323 10.99 15.5623 11.0615C15.4923 11.1331 15.4088 11.1899 15.3165 11.2287C15.2243 11.2675 15.1252 11.2875 15.0251 11.2875C14.9251 11.2875 14.826 11.2675 14.7338 11.2287C14.6415 11.1899 14.558 11.1331 14.488 11.0615C14.418 10.99 14.363 10.9052 14.3263 10.8121C14.2895 10.719 14.2717 10.6196 14.274 10.5195V9.32524L11.0462 12.5486C10.7532 12.8398 10.2799 12.8398 9.98694 12.5486L9.01715 11.5773L6.54354 14.0509C5.83797 14.8074 4.72566 13.7012 5.47838 12.9917L8.48458 9.98693C8.77758 9.69575 9.25086 9.69575 9.54386 9.98693L10.5136 10.9626L13.2147 8.26156H12.016C11.9159 8.26381 11.8164 8.24604 11.7233 8.2093C11.6302 8.17256 11.5454 8.11758 11.4738 8.04761C11.4023 7.97763 11.3454 7.89406 11.3066 7.80181C11.2678 7.70955 11.2478 7.61047 11.2478 7.51038C11.2478 7.41029 11.2678 7.31121 11.3066 7.21895C11.3454 7.1267 11.4023 7.04313 11.4738 6.97315C11.5454 6.90318 11.6302 6.8482 11.7233 6.81146C11.8164 6.77472 11.9159 6.75695 12.016 6.7592Z" fill="white"></path></g><defs><clipPath id="clip0_1_68"><rect width="24" height="24" fill="white"></rect></clipPath></defs></svg>