<svg xmlns="http://www.w3.org/2000/svg" width="24" height="24" viewBox="0 0 24 24" fill="none"><path d="M20.1995 17.02C20.1399 16.9779 17.8091 11.9119 17.6772 11.6866C17.7154 11.5663 17.722 11.4382 17.6964 11.3146C17.6708 11.191 17.6138 11.0761 17.5309 10.9809C16.616 10.1714 14.3858 12.2633 13.5036 13.0639C13.1151 13.4766 10.4235 15.9567 11.2516 16.9974C11.3419 17.0824 11.4524 17.1429 11.5726 17.1731C11.6928 17.2033 11.8188 17.2023 11.9385 17.1701L15.4065 18.9942L13.725 20.6081C13.6343 20.6928 13.5616 20.795 13.5112 20.9085C13.4609 21.022 13.4341 21.1445 13.4323 21.2687C13.4436 21.4533 13.4956 21.6331 13.5845 21.7953C13.6734 21.9575 13.797 22.0981 13.9465 22.207C14.0325 22.297 14.1353 22.3692 14.2492 22.4194C14.3631 22.4697 14.4858 22.497 14.6102 22.4998C14.7347 22.5025 14.8584 22.4808 14.9745 22.4357C15.0905 22.3906 15.1965 22.3231 15.2864 22.237L17.5384 20.0789C19.3147 20.6843 21.0448 18.7076 20.1995 17.02ZM11.8672 16.427C11.8628 16.0942 12.6114 14.9717 14.0215 13.6045C15.4519 12.2444 16.5796 11.5861 16.9378 11.5627C16.7368 12.1396 16.1367 13.0372 14.761 14.3777C13.3721 15.6772 12.4442 16.2604 11.8672 16.427Z" fill="white"></path><path d="M14.001 8.96123C13.9518 8.96315 13.9034 8.97476 13.8586 8.99539C13.8139 9.01602 13.7736 9.04528 13.7402 9.08148C13.7067 9.11769 13.6808 9.16013 13.6637 9.20638C13.6467 9.25263 13.6389 9.30179 13.6409 9.35103L13.6983 10.8062C13.7003 10.8554 13.7119 10.9038 13.7325 10.9485C13.7532 10.9933 13.7824 11.0335 13.8186 11.067C13.8548 11.1004 13.8972 11.1264 13.9435 11.1434C13.9897 11.1605 14.0389 11.1682 14.0881 11.1663C14.1374 11.1643 14.1857 11.1527 14.2305 11.1321C14.2752 11.1114 14.3155 11.0822 14.3489 11.046C14.3823 11.0098 14.4083 10.9673 14.4254 10.9211C14.4424 10.8749 14.4502 10.8257 14.4482 10.7765L14.3909 9.32135C14.3896 9.27188 14.3784 9.22317 14.358 9.1781C14.3376 9.13302 14.3084 9.0925 14.272 9.05892C14.2357 9.02535 14.193 8.9994 14.1464 8.98262C14.0999 8.96584 14.0505 8.95857 14.001 8.96123Z" fill="white"></path><path d="M9.78791 13.042C9.68963 13.0354 9.59273 13.0678 9.5181 13.1321C9.44348 13.1964 9.3971 13.2874 9.38898 13.3855C9.38085 13.4837 9.41163 13.5811 9.47467 13.6568C9.53772 13.7325 9.62798 13.7803 9.72599 13.7901L11.1772 13.9099C11.2753 13.9161 11.3719 13.8836 11.4463 13.8193C11.5206 13.755 11.5668 13.6642 11.575 13.5662C11.5831 13.4683 11.5524 13.3711 11.4896 13.2954C11.4269 13.2198 11.3369 13.1719 11.2392 13.1618L9.78791 13.042Z" fill="white"></path><path d="M12.1301 12.1729C12.1995 12.2426 12.2934 12.2822 12.3917 12.2834C12.49 12.2845 12.5848 12.2471 12.6558 12.179C12.7268 12.111 12.7683 12.0179 12.7713 11.9196C12.7744 11.8214 12.7388 11.7258 12.6722 11.6535L11.8011 10.744C11.7322 10.6724 11.6377 10.631 11.5383 10.629C11.4389 10.627 11.3427 10.6645 11.271 10.7332C11.1992 10.802 11.1576 10.8964 11.1554 10.9958C11.1531 11.0952 11.1904 11.1914 11.259 11.2634L12.1301 12.1729Z" fill="white"></path><path d="M7.1527 14.449C6.20477 14.4502 5.29607 14.8275 4.62613 15.4982C3.95619 16.1688 3.5798 17.0779 3.57959 18.0258C3.77549 22.7682 10.5354 22.7629 10.7296 18.0258C10.7292 17.0773 10.3522 16.1678 9.68147 15.4971C9.01076 14.8264 8.10122 14.4494 7.1527 14.449ZM7.86959 17.3315V18.7728C7.87909 19.0716 7.76996 19.3621 7.56603 19.5808C7.3621 19.7995 7.07993 19.9286 6.78113 19.94H6.45835C6.20727 19.9243 5.97163 19.8134 5.7994 19.63C5.62718 19.4466 5.53131 19.2045 5.53131 18.9529C5.53131 18.7013 5.62718 18.4592 5.7994 18.2758C5.97163 18.0924 6.20727 17.9816 6.45835 17.9658C6.55978 17.9654 6.65743 18.0043 6.73088 18.0742C6.80432 18.1442 6.84788 18.2398 6.85244 18.3411C6.8543 18.3896 6.84636 18.438 6.8291 18.4834C6.81184 18.5288 6.78561 18.5703 6.75199 18.6053C6.71836 18.6403 6.67802 18.6682 6.63338 18.6873C6.58873 18.7064 6.5407 18.7163 6.49214 18.7165C6.37396 18.7011 6.28341 18.8082 6.28196 18.9529C6.28196 19.0805 6.36076 19.1894 6.45835 19.1894H6.78113C6.88072 19.1779 6.97186 19.1278 7.035 19.05C7.09814 18.9721 7.12827 18.8726 7.11893 18.7728V16.4832C7.1207 16.4106 7.14335 16.3399 7.18417 16.2798C7.22499 16.2196 7.28225 16.1725 7.34913 16.144C7.41601 16.1155 7.48968 16.1069 7.56134 16.1191C7.63299 16.1314 7.69961 16.164 7.75325 16.213C8.10675 16.5546 8.48294 16.8718 8.87922 17.1626C8.93472 17.1667 8.98856 17.1833 9.03668 17.2113C9.0848 17.2393 9.12593 17.2778 9.15696 17.324C9.18489 17.3646 9.20451 17.4104 9.21472 17.4586C9.22493 17.5068 9.22551 17.5566 9.21645 17.6051C9.20738 17.6536 9.18884 17.6998 9.16189 17.741C9.13494 17.7823 9.1001 17.8179 9.05938 17.8457C8.87547 17.9733 8.73284 18.0709 7.86959 17.3315Z" fill="white"></path><path d="M7.15271 12.9102C8.10065 12.91 9.00975 12.5336 9.6804 11.8636C10.351 11.1937 10.7284 10.285 10.7296 9.33704C10.5394 4.59476 3.77 4.59216 3.57959 9.33707C3.58058 10.2844 3.95735 11.1927 4.62723 11.8625C5.2971 12.5324 6.20537 12.9092 7.15271 12.9102ZM5.90664 9.11183H6.48839V8.48127C6.48877 8.11407 6.6348 7.76202 6.89445 7.50237C7.1541 7.24272 7.50616 7.09669 7.87335 7.09631C8.26102 7.08735 8.98306 7.31342 8.7216 7.81697C8.66939 7.90109 8.58615 7.96125 8.4899 7.98442C8.39366 8.0076 8.29215 7.99193 8.20737 7.9408C8.10712 7.87863 7.99131 7.8461 7.87335 7.84697C7.79002 7.84687 7.70749 7.8632 7.63049 7.89504C7.55348 7.92688 7.48352 7.9736 7.4246 8.03252C7.36567 8.09144 7.31896 8.16141 7.28712 8.23841C7.25528 8.31542 7.23894 8.39795 7.23904 8.48127V9.11183H7.9484C8.04691 9.11338 8.14087 9.15361 8.20998 9.22383C8.2791 9.29405 8.31784 9.38863 8.31784 9.48715C8.31784 9.58568 8.2791 9.68026 8.20998 9.75048C8.14087 9.8207 8.04691 9.86093 7.9484 9.86248H7.23905V11.2024C7.23921 11.2518 7.22961 11.3007 7.21082 11.3464C7.19203 11.3921 7.16441 11.4336 7.12954 11.4686C7.09467 11.5035 7.05324 11.5313 7.00763 11.5502C6.96201 11.5692 6.91311 11.5789 6.86372 11.5789C6.81433 11.5789 6.76543 11.5692 6.71982 11.5502C6.6742 11.5313 6.63277 11.5035 6.5979 11.4686C6.56304 11.4336 6.53541 11.3921 6.51662 11.3464C6.49783 11.3007 6.48824 11.2518 6.48839 11.2024V9.86248H5.90664C5.80812 9.86093 5.71417 9.8207 5.64505 9.75048C5.57593 9.68026 5.53719 9.58568 5.53719 9.48715C5.53719 9.38863 5.57593 9.29405 5.64505 9.22383C5.71417 9.15361 5.80812 9.11338 5.90664 9.11183Z" fill="white"></path><path d="M15.0049 8.73647C15.9667 8.73498 16.8886 8.35199 17.5683 7.67156C18.2481 6.99113 18.6301 6.06883 18.6306 5.10705C18.4333 0.29505 11.5735 0.30024 11.3755 5.10708C11.3768 6.06925 11.7597 6.99162 12.44 7.67197C13.1204 8.35232 14.0428 8.73513 15.0049 8.73647ZM12.9894 4.0599C12.9892 3.80366 13.0906 3.55779 13.2715 3.37625C13.4523 3.19471 13.6978 3.09232 13.954 3.09154H16.0521C16.3087 3.09217 16.5547 3.19439 16.7361 3.37586C16.9176 3.55732 17.0198 3.80327 17.0205 4.0599V6.15797C17.0197 6.41421 16.9173 6.65968 16.7358 6.84052C16.5542 7.02136 16.3083 7.12279 16.0521 7.12257H13.954C13.8273 7.12261 13.7019 7.09768 13.5848 7.04922C13.4678 7.00076 13.3614 6.92971 13.2718 6.84013C13.1823 6.75055 13.1112 6.6442 13.0628 6.52715C13.0143 6.4101 12.9894 6.28465 12.9894 6.15797V4.0599Z" fill="white"></path><path d="M13.9537 6.37193H16.0518C16.0802 6.37233 16.1083 6.3671 16.1347 6.35654C16.161 6.34597 16.185 6.33029 16.2053 6.31039C16.2255 6.2905 16.2416 6.26678 16.2526 6.24062C16.2637 6.21447 16.2694 6.18638 16.2695 6.158V4.05992C16.2694 4.0022 16.2465 3.94685 16.2057 3.90604C16.1648 3.86522 16.1095 3.84227 16.0518 3.84222H13.9537C13.9253 3.84232 13.8972 3.84805 13.8711 3.85907C13.8449 3.87009 13.8212 3.88619 13.8013 3.90643C13.7814 3.92668 13.7657 3.95067 13.7552 3.97702C13.7446 4.00336 13.7394 4.03154 13.7398 4.05992V6.158C13.7394 6.18618 13.7448 6.21414 13.7554 6.24025C13.766 6.26635 13.7818 6.29006 13.8017 6.30999C13.8216 6.32992 13.8453 6.34567 13.8714 6.35631C13.8975 6.36694 13.9255 6.37226 13.9537 6.37193ZM15.0046 4.07868C15.2756 4.08219 15.5342 4.19229 15.7246 4.38512C15.9149 4.57796 16.0216 4.83802 16.0216 5.10898C16.0216 5.37994 15.9149 5.63999 15.7245 5.83282C15.5342 6.02565 15.2755 6.13573 15.0046 6.13923C14.7337 6.13572 14.475 6.02563 14.2847 5.83279C14.0943 5.63996 13.9876 5.3799 13.9876 5.10894C13.9876 4.83798 14.0943 4.57793 14.2847 4.3851C14.475 4.19227 14.7337 4.08219 15.0046 4.07868Z" fill="white"></path><path d="M15.0048 5.38852C15.0777 5.38661 15.147 5.35631 15.1979 5.30408C15.2487 5.25185 15.2772 5.18181 15.2772 5.10889C15.2772 5.03597 15.2487 4.96594 15.1979 4.91371C15.147 4.86148 15.0777 4.83119 15.0048 4.82928C14.9319 4.83119 14.8627 4.86149 14.8118 4.91372C14.7609 4.96596 14.7324 5.03599 14.7324 5.10891C14.7324 5.18183 14.7609 5.25186 14.8118 5.30409C14.8627 5.35632 14.9319 5.38661 15.0048 5.38852Z" fill="white"></path></svg>