<svg xmlns="http://www.w3.org/2000/svg" width="24" height="24" viewBox="0 0 24 24" fill="none"><path d="M19.3929 5.25H4.60714C3.72 5.25 3 5.97 3 6.85714V8.14286H7.84071C8.46283 8.11405 9.08149 7.45045 9.73073 7.50004C9.73072 7.5 21 7.5 21 7.5V6.85714C21 5.97 20.28 5.25 19.3929 5.25ZM4.76786 7.01786C4.34679 7.0082 4.34679 6.38463 4.76786 6.375C5.18893 6.38463 5.18893 7.0082 4.76786 7.01786ZM6.05357 7.01786C5.6325 7.0082 5.6325 6.38463 6.05357 6.375C6.47464 6.38463 6.47464 7.0082 6.05357 7.01786ZM7.33928 7.01786C6.91821 7.0082 6.91821 6.38463 7.33928 6.375C7.76036 6.38463 7.76036 7.0082 7.33928 7.01786Z" fill="white"></path><path d="M8.55749 8.61539C8.33571 8.72791 8.08822 8.78576 7.84071 8.78576H3V17.1429C3 18.03 3.72 18.75 4.60714 18.75H19.3929C20.28 18.75 21 18.03 21 17.1429V8.1429H9.73071C9.41892 8.11396 8.83393 8.49969 8.55749 8.61539ZM13.125 11.5179H13.7679C14.8318 11.5179 15.6964 12.3825 15.6964 13.4465C15.6964 14.5104 14.8318 15.375 13.7679 15.375H13.125C12.9482 15.375 12.8036 15.2304 12.8036 15.0536C12.8036 14.8768 12.9482 14.7322 13.125 14.7322H13.7679C14.4782 14.7322 15.0536 14.1568 15.0536 13.4465C15.0536 12.7361 14.4782 12.1608 13.7679 12.1608H13.125C12.7034 12.1535 12.7025 11.5256 13.125 11.5179ZM10.2321 13.7679C9.81099 13.7601 9.80904 13.1332 10.2322 13.125C10.2321 13.125 13.7679 13.125 13.7679 13.125C14.189 13.1328 14.191 13.7597 13.7678 13.7679H10.2321ZM10.875 11.5179C11.2972 11.5266 11.2974 12.1523 10.875 12.1608H10.2321C9.52178 12.1608 8.94643 12.7361 8.94643 13.4465C8.94643 14.1568 9.52178 14.7322 10.2321 14.7322H10.875C11.0518 14.7322 11.1964 14.8768 11.1964 15.0536C11.1964 15.2304 11.0518 15.375 10.875 15.375H10.2321C7.67954 15.2852 7.68015 11.6074 10.2322 11.5179C10.2321 11.5179 10.875 11.5179 10.875 11.5179Z" fill="white"></path></svg>